<mxfile host="app.diagrams.net" agent="Mozilla/5.0 (Macintosh; Intel Mac OS X 10_15_7) AppleWebKit/537.36 (KHTML, like Gecko) Chrome/139.0.0.0 Safari/537.36" version="28.2.5">
  <diagram name="Страница — 1" id="CeiyABLC5YsDne_hMfqf">
    <mxGraphModel dx="946" dy="1704" grid="1" gridSize="10" guides="1" tooltips="1" connect="1" arrows="1" fold="1" page="1" pageScale="1" pageWidth="827" pageHeight="1169" math="0" shadow="0">
      <root>
        <mxCell id="0" />
        <mxCell id="1" parent="0" />
        <mxCell id="fnnZ45gkIRCJ9yRkneEd-1" value="" style="rounded=0;whiteSpace=wrap;html=1;fillColor=#d5e8d4;strokeColor=#82b366;" vertex="1" parent="1">
          <mxGeometry x="160" y="140" width="310" height="240" as="geometry" />
        </mxCell>
        <mxCell id="fnnZ45gkIRCJ9yRkneEd-2" value="worker-1 -&amp;gt; chat 1" style="text;html=1;align=center;verticalAlign=middle;whiteSpace=wrap;rounded=0;" vertex="1" parent="1">
          <mxGeometry x="170" y="150" width="140" height="30" as="geometry" />
        </mxCell>
        <mxCell id="fnnZ45gkIRCJ9yRkneEd-5" value="&lt;p style=&quot;margin: 0px; font-variant-numeric: normal; font-variant-east-asian: normal; font-variant-alternates: normal; font-size-adjust: none; font-kerning: auto; font-optical-sizing: auto; font-feature-settings: normal; font-variation-settings: normal; font-variant-position: normal; font-variant-emoji: normal; font-stretch: normal; font-size: 11px; line-height: normal; font-family: Menlo; text-align: start;&quot; class=&quot;p1&quot;&gt;&lt;span style=&quot;font-variant-ligatures: no-common-ligatures;&quot; class=&quot;s1&quot;&gt;chat_messages_p2025_10_01_pkey_102206&lt;/span&gt;&lt;/p&gt;" style="rounded=0;whiteSpace=wrap;html=1;fillColor=#f5f5f5;fontColor=#333333;strokeColor=#666666;" vertex="1" parent="1">
          <mxGeometry x="170" y="180" width="280" height="60" as="geometry" />
        </mxCell>
        <mxCell id="fnnZ45gkIRCJ9yRkneEd-6" value="&lt;p style=&quot;margin: 0px; font-variant-numeric: normal; font-variant-east-asian: normal; font-variant-alternates: normal; font-size-adjust: none; font-kerning: auto; font-optical-sizing: auto; font-feature-settings: normal; font-variation-settings: normal; font-variant-position: normal; font-variant-emoji: normal; font-stretch: normal; font-size: 11px; line-height: normal; font-family: Menlo; text-align: start;&quot; class=&quot;p1&quot;&gt;&lt;span style=&quot;font-variant-ligatures: no-common-ligatures;&quot; class=&quot;s1&quot;&gt;chat_messages_p2025_10_30_pkey_102046&lt;/span&gt;&lt;/p&gt;" style="rounded=0;whiteSpace=wrap;html=1;fillColor=#f5f5f5;fontColor=#333333;strokeColor=#666666;" vertex="1" parent="1">
          <mxGeometry x="170" y="310" width="280" height="60" as="geometry" />
        </mxCell>
        <mxCell id="fnnZ45gkIRCJ9yRkneEd-8" value="&lt;p style=&quot;margin: 0px; font-variant-numeric: normal; font-variant-east-asian: normal; font-variant-alternates: normal; font-size-adjust: none; font-kerning: auto; font-optical-sizing: auto; font-feature-settings: normal; font-variation-settings: normal; font-variant-position: normal; font-variant-emoji: normal; font-stretch: normal; font-size: 11px; line-height: normal; font-family: Menlo; text-align: start;&quot; class=&quot;p1&quot;&gt;&lt;span style=&quot;font-variant-ligatures: no-common-ligatures;&quot; class=&quot;s1&quot;&gt;...&lt;/span&gt;&lt;/p&gt;" style="rounded=0;whiteSpace=wrap;html=1;fillColor=#f5f5f5;fontColor=#333333;strokeColor=#666666;" vertex="1" parent="1">
          <mxGeometry x="170" y="245" width="280" height="60" as="geometry" />
        </mxCell>
        <mxCell id="fnnZ45gkIRCJ9yRkneEd-9" value="" style="rounded=0;whiteSpace=wrap;html=1;fillColor=#e1d5e7;strokeColor=#9673a6;" vertex="1" parent="1">
          <mxGeometry x="550" y="140" width="310" height="240" as="geometry" />
        </mxCell>
        <mxCell id="fnnZ45gkIRCJ9yRkneEd-10" value="worker-2 -&amp;gt; chat 2" style="text;html=1;align=center;verticalAlign=middle;whiteSpace=wrap;rounded=0;" vertex="1" parent="1">
          <mxGeometry x="560" y="150" width="140" height="30" as="geometry" />
        </mxCell>
        <mxCell id="fnnZ45gkIRCJ9yRkneEd-11" value="&lt;p style=&quot;margin: 0px; font-variant-numeric: normal; font-variant-east-asian: normal; font-variant-alternates: normal; font-size-adjust: none; font-kerning: auto; font-optical-sizing: auto; font-feature-settings: normal; font-variation-settings: normal; font-variant-position: normal; font-variant-emoji: normal; font-stretch: normal; font-size: 11px; line-height: normal; font-family: Menlo; text-align: start;&quot; class=&quot;p1&quot;&gt;&lt;span style=&quot;font-variant-ligatures: no-common-ligatures;&quot; class=&quot;s1&quot;&gt;chat_messages_p2025_10_01_pkey_102206&lt;/span&gt;&lt;/p&gt;" style="rounded=0;whiteSpace=wrap;html=1;fillColor=#f5f5f5;fontColor=#333333;strokeColor=#666666;" vertex="1" parent="1">
          <mxGeometry x="560" y="180" width="280" height="60" as="geometry" />
        </mxCell>
        <mxCell id="fnnZ45gkIRCJ9yRkneEd-12" value="&lt;p style=&quot;margin: 0px; font-variant-numeric: normal; font-variant-east-asian: normal; font-variant-alternates: normal; font-size-adjust: none; font-kerning: auto; font-optical-sizing: auto; font-feature-settings: normal; font-variation-settings: normal; font-variant-position: normal; font-variant-emoji: normal; font-stretch: normal; font-size: 11px; line-height: normal; font-family: Menlo; text-align: start;&quot; class=&quot;p1&quot;&gt;&lt;span style=&quot;font-variant-ligatures: no-common-ligatures;&quot; class=&quot;s1&quot;&gt;chat_messages_p2025_10_30_pkey_102046&lt;/span&gt;&lt;/p&gt;" style="rounded=0;whiteSpace=wrap;html=1;fillColor=#f5f5f5;fontColor=#333333;strokeColor=#666666;" vertex="1" parent="1">
          <mxGeometry x="560" y="310" width="280" height="60" as="geometry" />
        </mxCell>
        <mxCell id="fnnZ45gkIRCJ9yRkneEd-13" value="&lt;p style=&quot;margin: 0px; font-variant-numeric: normal; font-variant-east-asian: normal; font-variant-alternates: normal; font-size-adjust: none; font-kerning: auto; font-optical-sizing: auto; font-feature-settings: normal; font-variation-settings: normal; font-variant-position: normal; font-variant-emoji: normal; font-stretch: normal; font-size: 11px; line-height: normal; font-family: Menlo; text-align: start;&quot; class=&quot;p1&quot;&gt;&lt;span style=&quot;font-variant-ligatures: no-common-ligatures;&quot; class=&quot;s1&quot;&gt;...&lt;/span&gt;&lt;/p&gt;" style="rounded=0;whiteSpace=wrap;html=1;fillColor=#f5f5f5;fontColor=#333333;strokeColor=#666666;" vertex="1" parent="1">
          <mxGeometry x="560" y="245" width="280" height="60" as="geometry" />
        </mxCell>
        <mxCell id="fnnZ45gkIRCJ9yRkneEd-15" style="edgeStyle=orthogonalEdgeStyle;rounded=0;orthogonalLoop=1;jettySize=auto;html=1;" edge="1" parent="1" source="fnnZ45gkIRCJ9yRkneEd-14" target="fnnZ45gkIRCJ9yRkneEd-1">
          <mxGeometry relative="1" as="geometry" />
        </mxCell>
        <mxCell id="fnnZ45gkIRCJ9yRkneEd-14" value="Master" style="rounded=0;whiteSpace=wrap;html=1;" vertex="1" parent="1">
          <mxGeometry x="450" y="-10" width="120" height="60" as="geometry" />
        </mxCell>
        <mxCell id="fnnZ45gkIRCJ9yRkneEd-16" style="edgeStyle=orthogonalEdgeStyle;rounded=0;orthogonalLoop=1;jettySize=auto;html=1;entryX=0.377;entryY=0.017;entryDx=0;entryDy=0;entryPerimeter=0;" edge="1" parent="1" target="fnnZ45gkIRCJ9yRkneEd-9">
          <mxGeometry relative="1" as="geometry">
            <mxPoint x="529" y="53" as="sourcePoint" />
            <Array as="points">
              <mxPoint x="529" y="70" />
              <mxPoint x="530" y="70" />
              <mxPoint x="530" y="100" />
              <mxPoint x="667" y="100" />
            </Array>
          </mxGeometry>
        </mxCell>
        <mxCell id="fnnZ45gkIRCJ9yRkneEd-17" value="chat_id: 1&lt;div&gt;author: ...&lt;/div&gt;&lt;div&gt;text: hello&lt;/div&gt;" style="shape=process;whiteSpace=wrap;html=1;backgroundOutline=1;fillColor=#d5e8d4;strokeColor=#82b366;" vertex="1" parent="1">
          <mxGeometry x="294" y="30" width="120" height="60" as="geometry" />
        </mxCell>
        <mxCell id="fnnZ45gkIRCJ9yRkneEd-19" value="chat_id: 2&lt;div&gt;author: ...&lt;/div&gt;&lt;div&gt;text: hello&lt;/div&gt;" style="shape=process;whiteSpace=wrap;html=1;backgroundOutline=1;fillColor=#e1d5e7;strokeColor=#9673a6;" vertex="1" parent="1">
          <mxGeometry x="600" y="30" width="120" height="60" as="geometry" />
        </mxCell>
      </root>
    </mxGraphModel>
  </diagram>
</mxfile>
